
<svg xmlns="http://www.w3.org/2000/svg" width="68.860001mm" height="68.849998mm" viewBox="0 0 68.860001 68.849998" version="1.1" id="svg245">
  <defs id="defs239"></defs>
  <g id="layer1">
    <path d="m 8.154543,24.152874 c 0.418235,0 0.756542,-0.336585 0.756542,-0.754821 0,-0.419266 -0.338307,-0.758264 -0.756542,-0.758264 -0.417548,0 -0.757922,0.338998 -0.757922,0.758264 0,0.418236 0.340374,0.754821 0.757922,0.754821 z" style="fill:#92837b;fill-opacity:1;fill-rule:nonzero;stroke:none;stroke-width:0.352778" id="path66"></path>
    <path d="m 24.034367,5.513529 c 0.0317,0.108867 0.22875,0.831303 0.22875,0.831303 0.0937,0.348643 0.13987,0.651122 0.13987,0.651122 l -4.06176,1.810399 0.29283,0.656978 2.39985,-1.074868 c 0.0427,0.09336 0.37827,0.847492 0.41686,0.940167 l -1.73495,0.776869 0.29765,0.648709 3.61529,-1.617126 0.57671,1.28106 0.77445,-0.34434 -0.86609,-1.933042 -1.88102,0.839227 -0.421,-0.9381 2.60174,-1.164787 -0.28939,-0.651122 -0.95567,0.429083 c -0.0276,-0.301618 -0.10473,-0.67455 -0.23702,-1.129816 l -0.32591,-1.053511 -4.51789,2.025198 0.29559,0.649746 c 0,0 3.52915,-1.582159 3.65111,-1.633149 z" style="fill:#92837b;fill-opacity:1;fill-rule:nonzero;stroke:none;stroke-width:0.352778" id="path68"></path>
    <path d="m 16.532327,13.624662 c -0.47129,0.143316 -0.98392,0.486449 -1.56614,1.055924 -0.58498,0.571712 -0.94327,1.076935 -1.09485,1.546158 -0.15572,0.478868 -0.10473,0.858002 0.15158,1.121724 0.25838,0.263719 0.6339,0.321772 1.12241,0.173288 0.46716,-0.128849 0.9977,-0.482833 1.57097,-1.04352 0.57051,-0.552249 0.93775,-1.076248 1.08727,-1.549086 0.15572,-0.48042 0.10197,-0.857659 -0.15159,-1.121897 l -0.004,-0.0021 c -0.25977,-0.260448 -0.63941,-0.318325 -1.11621,-0.18035 m 0.43407,1.418001 c -0.12746,0.291112 -0.37827,0.613226 -0.72002,0.95257 -0.35002,0.338134 -0.6773,0.576707 -0.97772,0.702628 -0.27974,0.116614 -0.47817,0.116614 -0.58773,0 -0.0586,-0.05908 -0.0861,-0.135047 -0.0861,-0.228583 0,-0.104041 0.0351,-0.225654 0.10129,-0.364835 0.13022,-0.294041 0.3762,-0.615467 0.72622,-0.952571 0.35003,-0.341753 0.68076,-0.575331 0.96945,-0.697974 0.2825,-0.115584 0.47887,-0.115584 0.59394,0.0032 0.11438,0.113686 0.10749,0.312469 -0.0193,0.585664 z" style="fill:#92837b;fill-opacity:1;fill-rule:nonzero;stroke:none;stroke-width:0.352778" id="path70"></path>
    <path d="m 13.556457,13.855139 0.3948,0.409621 -1.9513,1.908411 0.49334,0.504536 4.52892,-4.418852 -0.48989,-0.50419 -1.96853,1.915647 -0.40032,-0.409452 c 0.0813,-0.07993 1.43109,-1.395606 1.43109,-1.395606 l -0.49058,-0.508498 -2.83945,2.771923 -0.515383,-0.53571 2.785013,-2.713701 -0.49471,-0.505396 -3.376887,3.298676 1.502067,1.540475 c 0,0 1.30913,-1.276925 1.39182,-1.357884 z" style="fill:#92837b;fill-opacity:1;fill-rule:nonzero;stroke:none;stroke-width:0.352778" id="path72"></path>
    <path d="m 63.079007,34.033404 c -1.10243,-0.0138 -2.47978,0.24323 -2.49218,1.63573 -0.0207,1.29261 1.26366,1.66674 2.45498,1.67846 0.99907,0.0124 2.45359,-0.15676 2.47151,-1.62368 0.0124,-1.38183 -1.32774,-1.68017 -2.43431,-1.69051 m -0.0289,2.36058 c -0.60978,-0.007 -1.76595,-0.0217 -1.75286,-0.71726 0.004,-0.70935 1.16031,-0.69798 1.76802,-0.68971 0.60427,0.007 1.74529,0.0121 1.73702,0.73139 -0.008,0.69901 -1.15273,0.67972 -1.75218,0.67558 z" style="fill:#92837b;fill-opacity:1;fill-rule:nonzero;stroke:none;stroke-width:0.352778" id="path74"></path>
    <path d="m 6.046833,40.328634 c 1.43867,-0.14642 2.356446,-1.08039 2.208304,-2.57039 -0.151581,-1.50619 -1.220251,-2.2214 -2.675459,-2.07567 -1.447631,0.14194 -2.384697,1.04869 -2.229665,2.5697 0.150206,1.50171 1.266416,2.22139 2.69682,2.07636 m -1.951302,-2.15146 c -0.09578,-0.97118 0.729672,-1.41663 1.589567,-1.50413 0.835092,-0.0837 1.728749,0.21842 1.821766,1.15962 0.09646,0.94533 -0.720714,1.41869 -1.556494,1.50309 -0.855074,0.0844 -1.75562,-0.1881 -1.854839,-1.15858 z" style="fill:#92837b;fill-opacity:1;fill-rule:nonzero;stroke:none;stroke-width:0.352778" id="path76"></path>
    <path d="m 9.670383,48.188614 -0.663526,0.35209 0.480247,0.89021 -1.096228,0.59118 c -0.108864,-0.12609 -0.231511,-0.29421 -0.356225,-0.52193 -0.480243,-0.89814 -0.122643,-1.77388 0.733806,-2.22898 0.859208,-0.46095 1.814876,-0.27595 2.339912,0.70453 0.18052,0.33796 0.329349,0.79753 0.358976,1.20233 l 0.739322,-0.32452 c -0.0916,-0.41824 -0.22738,-0.83854 -0.492653,-1.32947 -0.759986,-1.42489 -2.037429,-1.87137 -3.474032,-1.09933 -1.41938,0.75965 -1.598524,2.07223 -0.867477,3.42925 0.242535,0.44993 0.584288,0.86472 0.946023,1.24472 l 2.264805,-1.21061 z" style="fill:#92837b;fill-opacity:1;fill-rule:nonzero;stroke:none;stroke-width:0.352778" id="path78"></path>
    <path d="m 9.862622,43.682774 -3.403067,1.05282 2.862876,-2.80017 -0.350714,-1.1262 -4.555793,1.41455 0.274232,0.87471 3.423045,-1.0666 -2.878032,2.81775 0.346576,1.1169 4.548216,-1.41284 z" style="fill:#92837b;fill-opacity:1;fill-rule:nonzero;stroke:none;stroke-width:0.352778" id="path80"></path>
    <path d="m 5.465988,34.643874 c 1.878267,0.18708 2.491493,-1.044546 2.64239,-2.500446 L 8.237915,30.846007 3.496084,30.371961 3.365172,31.671796 c -0.142628,1.452107 0.216351,2.785018 2.100816,2.972078 m -1.370457,-2.713009 0.05168,-0.532267 3.24528,0.323151 -0.04961,0.5302 C 7.260891,33.048112 6.593916,33.755732 5.5659,33.652036 4.526169,33.549717 4.014228,32.723927 4.095533,31.930865 Z" style="fill:#92837b;fill-opacity:1;fill-rule:nonzero;stroke:none;stroke-width:0.352778" id="path82"></path>
    <path d="m 62.452687,38.189574 c -1.10587,-0.17708 -2.23586,-0.0637 -2.44601,1.24678 -0.1695,1.06178 0.42237,1.67156 1.43936,1.83554 0.87229,0.13609 1.51791,-0.25734 1.65847,-1.14584 0.0648,-0.3979 -0.0331,-0.71003 -0.32798,-0.98529 l 0.0193,-0.0117 c 0.69108,0.13815 1.40422,0.53434 1.27468,1.35083 -0.0503,0.31763 -0.17432,0.56017 -0.32039,0.79513 l 0.7469,0.24322 c 0.1633,-0.30937 0.26734,-0.62356 0.32383,-0.96463 0.23978,-1.52066 -1.09071,-2.16317 -2.36815,-2.36402 m -0.0193,1.61402 c -0.0689,0.45166 -0.52435,0.57292 -0.98186,0.49955 -0.41961,-0.0662 -0.81441,-0.32074 -0.74758,-0.75621 0.0799,-0.46302 0.50092,-0.59117 0.94533,-0.51883 0.47129,0.0751 0.85852,0.31868 0.78411,0.77549 z" style="fill:#92837b;fill-opacity:1;fill-rule:nonzero;stroke:none;stroke-width:0.352778" id="path84"></path>
    <path d="m 12.581487,52.537704 -0.59049,0.46922 0.63941,0.78514 -0.966001,0.78514 c -0.130915,-0.10474 -0.286632,-0.24323 -0.448553,-0.44718 -0.63941,-0.79099 -0.449929,-1.71738 0.303858,-2.32578 0.756546,-0.61357 1.732196,-0.60496 2.430166,0.25804 0.24461,0.29628 0.47956,0.72037 0.57603,1.1138 l 0.6649,-0.46061 c -0.16468,-0.39619 -0.37552,-0.78342 -0.72829,-1.21199 -1.01355,-1.25849 -2.353,-1.46106 -3.622866,-0.43477 -1.247126,1.01562 -1.176846,2.33509 -0.205327,3.53329 0.319704,0.39894 0.732426,0.73863 1.15824,1.04593 l 1.994713,-1.61402 z" style="fill:#92837b;fill-opacity:1;fill-rule:nonzero;stroke:none;stroke-width:0.352778" id="path86"></path>
    <path d="m 54.918957,15.635566 0.56913,0.566717 c 1.72668,-1.186491 2.71336,-2.135615 2.71336,-2.135615 l -3.58979,-3.512273 -0.49954,0.518485 2.94349,2.87855 c 0,0 -0.91847,0.863169 -2.13665,1.684136 z" style="fill:#92837b;fill-opacity:1;fill-rule:nonzero;stroke:none;stroke-width:0.352778" id="path88"></path>
    <path d="m 55.801587,17.464909 -1.72186,-1.688786 c 0.0799,-0.07889 1.48484,-1.518768 1.48484,-1.518768 l -0.59049,-0.587043 -1.49035,1.527383 -0.57464,-0.565859 1.48621,-1.521869 -0.58979,-0.584634 -1.49725,1.528244 -1.03834,-1.016992 -0.49541,0.509359 4.52617,4.428151 z" style="fill:#92837b;fill-opacity:1;fill-rule:nonzero;stroke:none;stroke-width:0.352778" id="path90"></path>
    <path d="m 46.688627,5.303033 -2.02021,-0.840944 -0.2508,0.608746 2.01607,0.843361 z" style="fill:#92837b;fill-opacity:1;fill-rule:nonzero;stroke:none;stroke-width:0.352778" id="path92"></path>
    <path d="m 47.177827,9.951674 c 0,0 0.59118,-1.407495 0.63252,-1.508777 l 0.81649,0.3371 0.2825,-0.677132 -0.8158,-0.337277 c 0.0441,-0.101974 0.6587,-1.573029 0.6587,-1.573029 l -0.75723,-0.312642 -1.56683,3.758427 z" style="fill:#92837b;fill-opacity:1;fill-rule:nonzero;stroke:none;stroke-width:0.352778" id="path94"></path>
    <path d="m 60.485537,30.530778 c -0.0682,0.3421 -0.0765,0.670762 -0.0296,1.017338 0.21635,1.528243 1.67845,1.742531 2.95727,1.560628 1.11001,-0.156061 2.15663,-0.601168 1.97266,-1.911339 -0.15089,-1.067978 -0.89641,-1.473468 -1.91961,-1.32636 -0.8723,0.119888 -1.3677,0.68833 -1.24436,1.579577 0.0579,0.400664 0.24735,0.669382 0.60495,0.844391 l -0.0138,0.01584 c -0.70418,0.07373 -1.49862,-0.09612 -1.61506,-0.915705 -0.0503,-0.320051 0,-0.585668 0.0675,-0.84956 l -0.77997,-0.01482 m 3.26044,0.263208 c 0.41961,-0.05891 0.87643,0.06477 0.93638,0.504705 0.0661,0.463709 -0.30179,0.707623 -0.74621,0.772735 -0.47335,0.06546 -0.91639,-0.0503 -0.98047,-0.510219 -0.0613,-0.45303 0.33417,-0.702455 0.7903,-0.767221 z" style="fill:#92837b;fill-opacity:1;fill-rule:nonzero;stroke:none;stroke-width:0.352778" id="path96"></path>
    <path d="m 60.422147,24.152874 c 0.41342,0 0.75379,-0.336585 0.75379,-0.754821 0,-0.419266 -0.34037,-0.758264 -0.75379,-0.758264 -0.41961,0 -0.75792,0.338998 -0.75792,0.758264 0,0.418236 0.33831,0.754821 0.75792,0.754821 z" style="fill:#92837b;fill-opacity:1;fill-rule:nonzero;stroke:none;stroke-width:0.352778" id="path98"></path>
    <path d="m 47.181957,6.542751 -3.73792,-1.559422 -0.25701,0.610302 3.74137,1.563899 z" style="fill:#92837b;fill-opacity:1;fill-rule:nonzero;stroke:none;stroke-width:0.352778" id="path100"></path>
    <path d="M 34.395147,7.558885 V 6.827488 c -0.96945,0.123335 -1.94372,0.09715 -1.94372,0.09715 V 4.201294 h 1.70463 l -0.003,-0.725537 h -2.51837 v 4.197502 c 0,0 1.54823,0.02618 2.76021,-0.114374 z" style="fill:#92837b;fill-opacity:1;fill-rule:nonzero;stroke:none;stroke-width:0.352778" id="path102"></path>
    <path d="m 45.540027,11.718145 0.77859,0.324186 0.76964,-1.841747 -4.34082,-1.816601 -0.26803,0.622529 3.57325,1.492762 z" style="fill:#92837b;fill-opacity:1;fill-rule:nonzero;stroke:none;stroke-width:0.352778" id="path104"></path>
    <path d="m 35.494137,5.868374 h 0.67868 v 3.149508 l 0.80064,0.0025 0.008,-6.259047 h -0.80891 v 2.343009 h -0.67868 V 2.754099 h -0.80684 v 5.943995 l 0.80684,0.0021 V 5.868323 Z" style="fill:#92837b;fill-opacity:1;fill-rule:nonzero;stroke:none;stroke-width:0.352778" id="path106"></path>
    <path d="m 44.146147,8.547972 c 0.49747,0.209804 0.93224,0.281805 1.305,0.212732 0.36587,-0.0751 0.61116,-0.257348 0.7338,-0.543462 0.11507,-0.281809 0.0751,-0.583427 -0.13091,-0.896069 -0.20326,-0.303513 -0.55053,-0.557763 -1.06316,-0.768946 -0.48644,-0.203948 -0.92053,-0.273541 -1.28295,-0.211184 -0.38585,0.06253 -0.63321,0.237021 -0.75379,0.527787 -0.0434,0.103008 -0.0661,0.207053 -0.0661,0.315916 0,0.190515 0.0737,0.394462 0.21359,0.597035 0.21429,0.309541 0.56569,0.568268 1.04456,0.766191 m -0.37965,-1.3367 c 0.051,-0.122301 0.15434,-0.191375 0.31005,-0.208771 0.17295,-0.02723 0.39412,0.02032 0.67318,0.136081 0.27423,0.115238 0.4644,0.243914 0.5643,0.372244 0.0937,0.125744 0.11094,0.244771 0.0668,0.361216 -0.053,0.124369 -0.15641,0.194995 -0.31557,0.222899 -0.16261,0.0279 -0.38861,-0.01171 -0.66284,-0.128157 -0.27285,-0.11455 -0.46026,-0.242707 -0.56568,-0.381719 -0.0958,-0.133326 -0.11989,-0.256487 -0.0703,-0.373793 z" style="fill:#92837b;fill-opacity:1;fill-rule:nonzero;stroke:none;stroke-width:0.352778" id="path108"></path>
    <path d="M 34.434417,0 C 15.446427,0 0,15.445052 0,34.429594 c 0,18.98351 15.446427,34.42925 34.434417,34.42925 18.98386,0 34.42753,-15.44574 34.42753,-34.42925 C 68.861947,15.445052 53.418277,0 34.434417,0 m 0,67.556254 c -18.26727,0 -33.129414,-14.85973 -33.129414,-33.12666 0,-18.268308 14.862144,-33.129759 33.129414,-33.129759 18.26659,0 33.12597,14.861451 33.12597,33.129759 0,18.26693 -14.85938,33.12666 -33.12597,33.12666 z" style="fill:#92837b;fill-opacity:1;fill-rule:nonzero;stroke:none;stroke-width:0.352778" id="path110"></path>
    <path d="m 18.247987,55.301014 -1.78319,2.09634 c -0.52572,0.62012 -1.0666,0.85783 -1.6247,0.38447 -0.55742,-0.47197 -0.40652,-1.04558 0.11851,-1.66501 l 1.78249,-2.096 -0.73174,-0.62321 -1.96921,2.32164 c -0.82407,0.97531 -0.61737,1.8452 0.31695,2.63447 0.93086,0.79237 1.82383,0.85852 2.64583,-0.113 l 1.97473,-2.32061 z" style="fill:#92837b;fill-opacity:1;fill-rule:nonzero;stroke:none;stroke-width:0.352778" id="path112"></path>
    <path d="m 48.278187,59.803754 -0.004,-0.0131 c 0.50091,-0.34899 0.61874,-0.93465 0.36104,-1.43178 -0.60771,-1.17547 -1.67569,-0.58704 -2.58726,-0.11817 l -0.91433,0.47646 2.18763,4.23368 0.84474,-0.44132 -0.90537,-1.75665 0.27216,-0.13918 c 0.35622,-0.18776 0.53261,-0.12196 0.81442,0.12609 l 1.19201,1.06109 0.9474,-0.48645 -1.53514,-1.30535 c -0.18052,-0.14331 -0.43408,-0.30592 -0.67386,-0.20532 m -1.07969,0.13814 -0.28319,0.14297 -0.58842,-1.1417 0.27974,-0.14504 c 0.42237,-0.21566 0.91778,-0.41892 1.18511,0.0916 0.27423,0.52676 -0.17776,0.83682 -0.59324,1.05213 z" style="fill:#92837b;fill-opacity:1;fill-rule:nonzero;stroke:none;stroke-width:0.352778" id="path114"></path>
    <path d="m 43.832637,63.451764 -0.42926,-1.26745 1.61162,-0.54157 -0.2384,-0.7121 -1.60886,0.5426 -0.37689,-1.1138 1.7563,-0.59255 -0.2384,-0.71038 -2.66788,0.89745 1.52687,4.51411 2.67822,-0.90159 -0.24185,-0.71244 z" style="fill:#92837b;fill-opacity:1;fill-rule:nonzero;stroke:none;stroke-width:0.352778" id="path116"></path>
    <path d="m 55.977287,51.100414 -0.56982,-0.49541 -2.41983,2.78054 0.56155,0.48954 0.90192,-1.02698 3.02411,2.63929 0.6277,-0.71934 -3.02686,-2.63653 z" style="fill:#92837b;fill-opacity:1;fill-rule:nonzero;stroke:none;stroke-width:0.352778" id="path118"></path>
    <path d="m 50.313557,57.269204 c -0.30386,-0.42306 -0.0455,-0.78618 0.21704,-0.9791 0.27216,-0.19775 0.58911,-0.33142 0.90468,-0.40583 l -0.39136,-0.68489 c -0.34796,0.10956 -0.69178,0.29111 -1.02113,0.52986 -0.68075,0.49402 -1.11621,1.29811 -0.48852,2.15594 0.92674,1.27606 2.39366,-0.2546 2.92627,0.47646 0.25907,0.34657 -0.0262,0.78237 -0.3197,0.99494 -0.30179,0.21945 -0.67525,0.34899 -1.04318,0.39791 l 0.4327,0.74758 c 0.44993,-0.18052 0.67731,-0.26251 1.09761,-0.56706 0.77653,-0.56879 1.2113,-1.3746 0.596,-2.2214 -0.93775,-1.29225 -2.42121,0.22255 -2.91041,-0.44441 z" style="fill:#92837b;fill-opacity:1;fill-rule:nonzero;stroke:none;stroke-width:0.352778" id="path120"></path>
    <path d="m 51.824567,54.387034 3.21635,3.51744 0.70348,-0.64699 -3.21909,-3.51469 z" style="fill:#92837b;fill-opacity:1;fill-rule:nonzero;stroke:none;stroke-width:0.352778" id="path122"></path>
    <path d="m 35.187517,60.887584 0.19637,4.76146 0.95705,-0.0403 -0.20051,-4.75802 z" style="fill:#92837b;fill-opacity:1;fill-rule:nonzero;stroke:none;stroke-width:0.352778" id="path124"></path>
    <path d="m 39.570367,64.214854 -0.0131,10e-4 -1.82383,-3.49022 -1.01355,0.16881 2.4095,4.43211 1.1548,-0.19671 0.79513,-4.96369 -0.93638,0.15502 -0.57258,3.89331 z" style="fill:#92837b;fill-opacity:1;fill-rule:nonzero;stroke:none;stroke-width:0.352778" id="path126"></path>
    <path d="m 55.193877,32.665017 c -0.97083,0 -1.76803,0.792371 -1.76803,1.766297 0,0.98013 0.7972,1.76768 1.76803,1.76768 0.97152,0 1.76389,-0.78755 1.76389,-1.76768 0,-0.973926 -0.79237,-1.766297 -1.76389,-1.766297 z" style="fill:#92837b;fill-opacity:1;fill-rule:nonzero;stroke:none;stroke-width:0.352778" id="path128"></path>
    <path d="m 34.434417,18.603514 c -8.73607,0 -15.8309,7.100686 -15.8309,15.82608 0,8.72505 7.09483,15.82539 15.8309,15.82539 8.72367,0 15.82539,-7.10034 15.82539,-15.82539 0,-8.725394 -7.10172,-15.82608 -15.82539,-15.82608 m 0,30.87701 c -8.30888,0 -15.05782,-6.75032 -15.05782,-15.05093 0,-8.304403 6.74894,-15.054721 15.05782,-15.054721 8.29441,0 15.04956,6.750318 15.04956,15.054721 0,8.30061 -6.75515,15.05093 -15.04956,15.05093 z" style="fill:#92837b;fill-opacity:1;fill-rule:nonzero;stroke:none;stroke-width:0.352778" id="path130"></path>
    <path d="m 34.435797,21.092424 c -7.35597,0 -13.34492,5.982579 -13.34492,13.33717 0,7.35528 5.98895,13.33597 13.34492,13.33597 7.35183,0 13.3339,-5.98069 13.3339,-13.33597 0,-7.354591 -5.98207,-13.33717 -13.3339,-13.33717 m 0,25.90798 c -6.93773,0 -12.57529,-5.63514 -12.57529,-12.57081 0,-6.932909 5.63756,-12.572185 12.57529,-12.572185 6.93222,0 12.56977,5.639276 12.56977,12.572185 0,6.93567 -5.63755,12.57081 -12.56977,12.57081 z" style="fill:#92837b;fill-opacity:1;fill-rule:nonzero;stroke:none;stroke-width:0.352778" id="path132"></path>
    <path d="m 34.435797,23.584778 c -5.98275,0 -10.85343,4.865508 -10.85343,10.844816 0,5.98034 4.87068,10.84516 10.85343,10.84516 5.97655,0 10.84516,-4.86482 10.84516,-10.84516 0,-5.979308 -4.86861,-10.844816 -10.84516,-10.844816 m 0.40101,0.787894 c 1.90789,0.0751 3.68418,0.682473 5.17867,1.680171 h -5.17867 v -1.680171 m 0,4.246079 h 3.87298 c 0.0861,0 0.71175,0.217043 0.71175,0.962216 h -4.58473 v -0.962216 m 0,1.772846 h 4.58887 c 0,0.783071 -0.64148,0.960148 -0.71589,0.960148 h -3.87298 v -0.960148 m -0.80822,-6.018925 v 1.680171 h -5.17729 c 1.49379,-0.996318 3.26802,-1.60438 5.17729,-1.680171 m -5.37159,14.180362 v 4.11516 c -2.59554,-1.82486 -4.29397,-4.83553 -4.29397,-8.2386 0,-3.021348 1.34014,-5.733327 3.45474,-7.580588 h 6.21082 v 0.961528 h -4.01905 c 0,0 -1.44418,0.08234 -1.44418,2.206928 0,2.119422 1.44418,2.13699 1.44418,2.13699 h 4.01905 v 0.962216 h -3.63389 c -0.52296,0.02582 -0.93155,0.198092 -1.25608,0.535368 -0.48162,0.502298 -0.48162,1.155828 -0.48162,1.226458 v 1.35633 c 0,0.22841 0.19017,0.4172 0.42305,0.4172 0.22876,0 0.41273,-0.18879 0.41273,-0.4172 v -1.40422 c 0,-0.0441 0.009,-0.38792 0.25425,-0.63321 0.18603,-0.19361 0.41961,-0.27457 0.76963,-0.28043 h 3.51193 v 2.87424 h -3.63389 c -0.52296,0.0248 -0.93155,0.19775 -1.25608,0.53296 -0.48162,0.50402 -0.48162,1.15824 -0.48162,1.22887 m 0.78548,-8.972067 c 0,-0.745173 0.62563,-0.962216 0.71107,-0.962216 h 3.87504 v 0.962216 h -4.58611 m 4.58611,0.81063 v 0.960148 h -3.87504 c -0.0744,0 -0.71589,-0.177077 -0.71589,-0.960148 h 4.59093 m -2.34473,13.720787 c -0.77239,-0.21842 -1.5062,-0.52814 -2.19108,-0.91365 v -4.69462 c 0,-0.0431 0.009,-0.38655 0.25425,-0.63218 0.18603,-0.1943 0.41961,-0.27458 0.76963,-0.27974 h 1.1672 v 6.52019 m 4.6812,0.19774 c -0.62495,0.12024 -1.26918,0.18673 -1.92926,0.18673 -0.66422,0 -1.31051,-0.0665 -1.93752,-0.18742 v -6.71724 h 3.86678 v 6.71793 m 3.0048,-1.11139 c -0.68419,0.38861 -1.41868,0.6966 -2.19107,0.91502 v -6.52156 h 1.16995 c 0.34657,0.005 0.57809,0.0854 0.76757,0.27974 0.24322,0.24563 0.25355,0.58911 0.25355,0.63218 v 4.69462 m 0.83785,-0.52813 v -4.11757 c 0,-0.0706 0,-0.72485 -0.48369,-1.22887 -0.32591,-0.33521 -0.73518,-0.50815 -1.25677,-0.53296 h -3.63044 v -2.87424 h 3.51193 c 0.34657,0.006 0.57809,0.0868 0.76757,0.28043 0.24322,0.24529 0.25355,0.58911 0.25355,0.63321 v 1.40422 c 0,0.22841 0.18397,0.4172 0.41411,0.4172 0.23219,0 0.42374,-0.18879 0.42374,-0.4172 v -1.35633 c 0,-0.0706 0,-0.72416 -0.48369,-1.226458 -0.32591,-0.337276 -0.73518,-0.509531 -1.25677,-0.535368 h -3.63044 v -0.962216 h 4.01698 c 0,0 1.44418,-0.01757 1.44418,-2.13699 0,-2.124593 -1.44418,-2.206928 -1.44418,-2.206928 h -4.01698 v -0.961528 h 6.21082 c 2.11391,1.847261 3.45336,4.55924 3.45336,7.580588 0,3.40754 -1.70119,6.41752 -4.29328,8.24101 z" style="fill:#92837b;fill-opacity:1;fill-rule:nonzero;stroke:none;stroke-width:0.352778" id="path134"></path>
    <path d="m 58.467407,34.429594 c 0,-13.250527 -10.78384,-24.035741 -24.03574,-24.035741 -13.25811,0 -24.037123,10.785214 -24.037123,24.035741 0,13.24984 10.779013,24.0354 24.037123,24.0354 13.2519,0 24.03574,-10.78556 24.03574,-24.0354 m -24.03574,23.3798 c -12.89637,0 -23.386689,-10.48963 -23.386689,-23.3798 0,-12.895852 10.490319,-23.384961 23.386689,-23.384961 12.89568,0 23.38255,10.489109 23.38255,23.384961 0,12.89017 -10.48687,23.3798 -23.38255,23.3798 z" style="fill:#92837b;fill-opacity:1;fill-rule:nonzero;stroke:none;stroke-width:0.352778" id="path136"></path>
    <path d="m 59.225327,43.078164 0.64285,1.66604 0.73932,-0.2632 -0.38309,-0.96876 3.50573,1.12241 0.29007,-0.90985 -4.5365,-1.45383 z" style="fill:#92837b;fill-opacity:1;fill-rule:nonzero;stroke:none;stroke-width:0.352778" id="path138"></path>
    <path d="m 32.970257,64.428794 -1.51309,-3.70864 -1.16927,-0.10198 -0.41616,4.74734 0.91502,0.0799 0.31143,-3.57463 1.51791,3.73517 1.16375,0.10025 0.4141,-4.74527 -0.91157,-0.0789 z" style="fill:#92837b;fill-opacity:1;fill-rule:nonzero;stroke:none;stroke-width:0.352778" id="path140"></path>
    <path d="m 49.111907,21.514622 c 0.47266,0 0.91639,-0.180524 1.24919,-0.51556 0.69109,-0.691949 0.69109,-1.809881 0,-2.49821 -0.6904,-0.687642 -1.80936,-0.687642 -2.4915,0 -0.33624,0.335897 -0.52365,0.776869 -0.52365,1.249881 0,0.474045 0.18741,0.913984 0.52365,1.248329 0.33005,0.333311 0.76964,0.51556 1.24231,0.51556 z" style="fill:#92837b;fill-opacity:1;fill-rule:nonzero;stroke:none;stroke-width:0.352778" id="path142"></path>
    <path d="m 34.434417,15.432994 c 0.96807,0 1.76458,-0.790995 1.76458,-1.762682 0,-0.973067 -0.79651,-1.764753 -1.76458,-1.764753 -0.97634,0 -1.77009,0.791686 -1.77009,1.764753 0,0.971687 0.79375,1.762682 1.77009,1.762682 z" style="fill:#92837b;fill-opacity:1;fill-rule:nonzero;stroke:none;stroke-width:0.352778" id="path144"></path>
    <path d="m 27.686167,62.844744 c -0.21635,0.78583 -0.60771,1.22783 -1.30983,1.03594 -0.70555,-0.19499 -0.81304,-0.77515 -0.60427,-1.55822 l 0.73726,-2.65272 -0.92191,-0.25632 -0.8096,2.9366 c -0.33624,1.23197 0.21773,1.93029 1.39458,2.25137 1.18166,0.32832 2.01951,0.0124 2.35713,-1.21715 l 0.8096,-2.93557 -0.9226,-0.25666 z" style="fill:#92837b;fill-opacity:1;fill-rule:nonzero;stroke:none;stroke-width:0.352778" id="path146"></path>
    <path d="m 22.136807,57.832814 -2.51767,0.91157 1.02939,-1.77353 -0.82751,-0.47956 -2.38539,4.12688 0.82614,0.47853 1.10656,-1.91651 0.0138,0.008 0.37344,2.77192 1.08176,0.62598 -0.5078,-3.20222 2.82222,-0.96084 -1.01493,-0.59015 z" style="fill:#92837b;fill-opacity:1;fill-rule:nonzero;stroke:none;stroke-width:0.352778" id="path148"></path>
    <path d="m 18.505677,21.00199 c 0.69246,0.686093 1.81418,0.686093 2.49494,-0.0028 0.33279,-0.332109 0.51883,-0.774284 0.51883,-1.248329 0,-0.473012 -0.18121,-0.917776 -0.51883,-1.249881 -0.68213,-0.683507 -1.80248,-0.683507 -2.49907,0.0014 -0.33005,0.334521 -0.51332,0.774802 -0.51332,1.244713 0,0.47577 0.18327,0.917776 0.51332,1.252121 l 0.004,0.0028 z" style="fill:#92837b;fill-opacity:1;fill-rule:nonzero;stroke:none;stroke-width:0.352778" id="path150"></path>
    <path d="m 34.434417,16.140098 c -10.08792,0 -18.29277,8.206737 -18.29277,18.289496 0,10.08448 8.20485,18.29242 18.29277,18.29242 10.08655,0 18.28795,-8.20794 18.28795,-18.29242 0,-10.082759 -8.2014,-18.289496 -18.28795,-18.289496 m 0,35.811256 c -9.66693,0 -17.52796,-7.85827 -17.52796,-17.52176 0,-9.664181 7.86103,-17.523823 17.52796,-17.523823 9.65661,0 17.51969,7.859642 17.51969,17.523823 0,9.66349 -7.86308,17.52176 -17.51969,17.52176 z" style="fill:#92837b;fill-opacity:1;fill-rule:nonzero;stroke:none;stroke-width:0.352778" id="path152"></path>
    <path d="m 13.670827,32.665017 c -0.9722,0 -1.766645,0.792371 -1.766645,1.766297 0,0.98013 0.794445,1.76768 1.766645,1.76768 0.97496,0 1.77078,-0.78755 1.77078,-1.76768 0,-0.973926 -0.79582,-1.766297 -1.77078,-1.766297 z" style="fill:#92837b;fill-opacity:1;fill-rule:nonzero;stroke:none;stroke-width:0.352778" id="path154"></path>
    <path d="m 57.812837,46.792324 -0.5271,0.86127 1.09761,2.02778 -2.2965,-0.0989 -0.5898,0.95429 3.36792,0.0369 1.60128,0.99184 0.50092,-0.81338 -1.60128,-0.99219 z" style="fill:#92837b;fill-opacity:1;fill-rule:nonzero;stroke:none;stroke-width:0.352778" id="path156"></path>
    <path d="m 47.869597,47.864774 c -0.69177,0.68627 -0.69177,1.80454 0,2.49253 0.6842,0.68488 1.80592,0.68488 2.4915,0 0.33486,-0.33107 0.51883,-0.7748 0.51883,-1.24781 0,-0.47301 -0.18397,-0.91709 -0.51883,-1.24472 -0.6904,-0.6928 -1.80936,-0.6928 -2.4915,0 z" style="fill:#92837b;fill-opacity:1;fill-rule:nonzero;stroke:none;stroke-width:0.352778" id="path158"></path>
    <path d="m 18.505677,47.861334 -0.004,0.004 c -0.33004,0.32762 -0.51332,0.7717 -0.51332,1.24471 0,0.47301 0.18328,0.91674 0.51332,1.24781 0.6966,0.68489 1.81695,0.68489 2.49907,0 0.33762,-0.33383 0.51883,-0.7748 0.51883,-1.25057 -0.004,-0.47267 -0.18603,-0.91467 -0.51883,-1.2454 -0.68075,-0.68936 -1.80247,-0.68936 -2.49493,0 z" style="fill:#92837b;fill-opacity:1;fill-rule:nonzero;stroke:none;stroke-width:0.352778" id="path160"></path>
    <path d="m 34.434417,53.425854 c -0.97634,0 -1.77009,0.79306 -1.77009,1.76319 0,0.97152 0.79375,1.76424 1.77009,1.76424 0.96807,0 1.76458,-0.79272 1.76458,-1.76424 0,-0.97013 -0.79651,-1.76319 -1.76458,-1.76319 z" style="fill:#92837b;fill-opacity:1;fill-rule:nonzero;stroke:none;stroke-width:0.352778" id="path162"></path>
  </g>
</svg>